<?xml version="1.0" encoding="utf-8"?>
<!-- Generator: Adobe Illustrator 27.4.1, SVG Export Plug-In . SVG Version: 6.00 Build 0)  -->
<svg version="1.1" id="Layer_1" xmlns="http://www.w3.org/2000/svg" xmlns:xlink="http://www.w3.org/1999/xlink" x="0px" y="0px"
	 viewBox="0 0 1870.31 247.65" style="enable-background:new 0 0 1870.31 247.65;" xml:space="preserve">
<style type="text/css">
	.st0{fill:url(#SVGID_1_);}
	.st1{fill:#404147;}
</style>
<g>
	<linearGradient id="SVGID_1_" gradientUnits="userSpaceOnUse" x1="3.4923" y1="123.8251" x2="617.5711" y2="123.8251">
		<stop  offset="0" style="stop-color:#0088EB"/>
		<stop  offset="0.1955" style="stop-color:#3971F1"/>
		<stop  offset="0.3881" style="stop-color:#695EF6"/>
		<stop  offset="0.5696" style="stop-color:#8E4FFA"/>
		<stop  offset="0.7371" style="stop-color:#A945FD"/>
		<stop  offset="0.8857" style="stop-color:#B93EFE"/>
		<stop  offset="1" style="stop-color:#BF3CFF"/>
	</linearGradient>
	<polygon class="st0" points="203.84,244.35 310.53,115.98 417.23,244.35 509.82,132.94 617.57,3.3 403.12,3.3 310.53,114.71 
		217.94,3.3 3.49,3.3 111.24,132.94 	"/>
	<g>
		<path class="st1" d="M929.12,32.62h26.98l-76.4,189.77h-5.94L811.98,68.73l-62.42,153.66h-5.81L667.58,32.62h27.26l52.07,130.26
			l52.42-130.26h25.57l52.67,130.26L929.12,32.62z"/>
		<path class="st1" d="M1008.31,96.87c18.94,0,34.67,6.11,47.21,18.33c12.53,12.22,18.8,27.57,18.8,46.06
			c0,17.95-6.36,32.85-19.07,44.7c-12.72,11.86-28.72,17.79-48.02,17.79c-18.67,0-34.27-6.02-46.8-18.06
			c-12.53-12.04-18.8-27.07-18.8-45.11c0-18.21,6.33-33.39,19-45.52C973.3,102.93,989.19,96.87,1008.31,96.87z M1006.96,119.05
			c-11.81,0-21.51,3.88-29.08,11.63c-7.57,7.76-11.36,17.63-11.36,29.62c0,11.9,3.88,21.62,11.63,29.15
			c7.75,7.53,17.72,11.29,29.89,11.29c12.08,0,21.98-3.81,29.69-11.43c7.71-7.62,11.56-17.38,11.56-29.28
			c0-11.81-4.01-21.6-12.04-29.35C1029.23,122.93,1019.13,119.05,1006.96,119.05z"/>
		<path class="st1" d="M1128.02,97.14v28.54l1.35-2.16c11.9-19.21,23.81-28.81,35.71-28.81c9.29,0,18.98,4.69,29.08,14.07
			l-12.98,21.64c-8.57-8.12-16.5-12.17-23.81-12.17c-7.94,0-14.81,3.79-20.63,11.36c-5.81,7.57-8.72,16.55-8.72,26.92v65.06h-24.75
			V97.14H1128.02z"/>
		<path class="st1" d="M1211.34,32.62h24.62v188.96h-24.62V32.62z M1292.35,97.14h29.23L1268.48,158l63.92,63.57h-33.03
			l-62.34-63.51L1292.35,97.14z"/>
		<path class="st1" d="M1347.68,32.62h100.77v24.08h-73.72v52.75h73.72v24.08h-73.72v88.06h-27.05V32.62z"/>
		<path class="st1" d="M1474.56,32.62h24.62v188.96h-24.62V32.62z"/>
		<path class="st1" d="M1594.27,96.87c18.94,0,34.67,6.11,47.21,18.33c12.53,12.22,18.8,27.57,18.8,46.06
			c0,17.95-6.36,32.85-19.07,44.7c-12.71,11.86-28.72,17.79-48.02,17.79c-18.67,0-34.27-6.02-46.8-18.06
			c-12.54-12.04-18.8-27.07-18.8-45.11c0-18.21,6.34-33.39,19.01-45.52C1559.26,102.93,1575.15,96.87,1594.27,96.87z
			 M1592.92,119.05c-11.82,0-21.51,3.88-29.08,11.63c-7.58,7.76-11.36,17.63-11.36,29.62c0,11.9,3.88,21.62,11.63,29.15
			c7.75,7.53,17.72,11.29,29.89,11.29c12.08,0,21.98-3.81,29.69-11.43c7.71-7.62,11.56-17.38,11.56-29.28
			c0-11.81-4.01-21.6-12.04-29.35C1615.19,122.93,1605.09,119.05,1592.92,119.05z"/>
		<path class="st1" d="M1840.43,97.14h26.4l-54.97,126.61H1804l-36.79-86.7l-36.34,86.7h-7.99l-55.42-126.61h26.44l32.6,75.48
			l31.78-75.48h18.25l31.39,75.48L1840.43,97.14z"/>
	</g>
</g>
</svg>
